{
  "accessors": [
    {
      "bufferView": 2,
      "componentType": 5126,
      "count": 7550,
      "max": [
        0.30000007152557373,
        0.0,
        0.8100002408027649
      ],
      "min": [
        -0.30000007152557373,
        -0.4500000774860382,
        0.6200000643730164
      ],
      "type": "VEC3"
    },
    {
      "bufferView": 2,
      "byteOffset": 90600,
      "componentType": 5126,
      "count": 7550,
      "max": [
        1.0,
        1.0,
        1.0
      ],
      "min": [
        -1.0,
        -1.0,
        -1.0
      ],
      "type": "VEC3"
    },
    {
      "bufferView": 1,
      "componentType": 5126,
      "count": 7550,
      "max": [
        0.6250001788139343,
        1.0000001192092896
      ],
      "min": [
        0.0,
        0.0
      ],
      "type": "VEC2"
    },
    {
      "bufferView": 0,
      "componentType": 5125,
      "count": 39024,
      "type": "SCALAR"
    },
    {
      "bufferView": 2,
      "byteOffset": 181200,
      "componentType": 5126,
      "count": 81,
      "max": [
        0.010000000707805157,
        -0.10999999940395355,
        0.7800000309944153
      ],
      "min": [
        -0.010000000707805157,
        -0.11000002175569534,
        0.7600000500679016
      ],
      "type": "VEC3"
    },
    {
      "bufferView": 2,
      "byteOffset": 182172,
      "componentType": 5126,
      "count": 81,
      "max": [
        0.7153089046478271,
        -0.6601045727729797,
        0.7153089046478271
      ],
      "min": [
        -0.7153089046478271,
        -1.0,
        -0.7153089046478271
      ],
      "type": "VEC3"
    },
    {
      "bufferView": 1,
      "byteOffset": 60400,
      "componentType": 5126,
      "count": 81,
      "max": [
        0.0,
        0.0
      ],
      "min": [
        0.0,
        0.0
      ],
      "type": "VEC2"
    },
    {
      "bufferView": 0,
      "byteOffset": 156096,
      "componentType": 5125,
      "count": 384,
      "type": "SCALAR"
    },
    {
      "bufferView": 2,
      "byteOffset": 183144,
      "componentType": 5126,
      "count": 179,
      "max": [
        0.025666669011116028,
        0.025666669011116028,
        0.6830001473426819
      ],
      "min": [
        -0.025666669011116028,
        -0.025666669011116028,
        0.6750000715255737
      ],
      "type": "VEC3"
    },
    {
      "bufferView": 2,
      "byteOffset": 185292,
      "componentType": 5126,
      "count": 179,
      "max": [
        1.0,
        1.0,
        1.0
      ],
      "min": [
        -1.0,
        -1.0,
        0.0
      ],
      "type": "VEC3"
    },
    {
      "bufferView": 1,
      "byteOffset": 61048,
      "componentType": 5126,
      "count": 179,
      "max": [
        0.23039767146110535,
        0.3410681486129761
      ],
      "min": [
        0.18633536994457245,
        0.2732918858528137
      ],
      "type": "VEC2"
    },
    {
      "bufferView": 0,
      "byteOffset": 157632,
      "componentType": 5125,
      "count": 768,
      "type": "SCALAR"
    },
    {
      "bufferView": 2,
      "byteOffset": 187440,
      "componentType": 5126,
      "count": 135,
      "max": [
        0.015333335846662521,
        0.015333342365920544,
        0.008462972939014435
      ],
      "min": [
        -0.015333335846662521,
        -0.015333342365920544,
        -0.0030000214464962482
      ],
      "type": "VEC3"
    },
    {
      "bufferView": 2,
      "byteOffset": 189060,
      "componentType": 5126,
      "count": 135,
      "max": [
        1.0,
        1.0,
        1.0
      ],
      "min": [
        -1.0,
        -1.0,
        0.0
      ],
      "type": "VEC3"
    },
    {
      "bufferView": 1,
      "byteOffset": 62480,
      "componentType": 5126,
      "count": 135,
      "max": [
        0.2500000298023224,
        1.0000001192092896
      ],
      "min": [
        0.0,
        0.24618664383888245
      ],
      "type": "VEC2"
    },
    {
      "bufferView": 0,
      "byteOffset": 160704,
      "componentType": 5125,
      "count": 528,
      "type": "SCALAR"
    },
    {
      "bufferView": 2,
      "byteOffset": 190680,
      "componentType": 5126,
      "count": 3440,
      "max": [
        0.08000002056360245,
        0.0,
        0.5000000596046448
      ],
      "min": [
        -0.08000002056360245,
        -0.020000018179416656,
        0.44999995827674866
      ],
      "type": "VEC3"
    },
    {
      "bufferView": 2,
      "byteOffset": 231960,
      "componentType": 5126,
      "count": 3440,
      "max": [
        1.0,
        1.0,
        1.0
      ],
      "min": [
        -1.0,
        -1.0,
        -1.0
      ],
      "type": "VEC3"
    },
    {
      "bufferView": 1,
      "byteOffset": 63560,
      "componentType": 5126,
      "count": 3440,
      "max": [
        0.5606797337532043,
        0.9926924705505371
      ],
      "min": [
        0.380772203207016,
        0.8749999403953552
      ],
      "type": "VEC2"
    },
    {
      "bufferView": 0,
      "byteOffset": 162816,
      "componentType": 5125,
      "count": 18432,
      "type": "SCALAR"
    },
    {
      "bufferView": 2,
      "byteOffset": 273240,
      "componentType": 5126,
      "count": 140,
      "max": [
        0.27800002694129944,
        -0.2800000011920929,
        0.5989964008331299
      ],
      "min": [
        -0.27800002694129944,
        -0.30000001192092896,
        0.12100362032651901
      ],
      "type": "VEC3"
    },
    {
      "bufferView": 2,
      "byteOffset": 274920,
      "componentType": 5126,
      "count": 140,
      "max": [
        0.9673681259155273,
        0.9673806428909302,
        0.9678782224655151
      ],
      "min": [
        -0.9673681259155273,
        -0.9673911333084106,
        -0.9678730368614197
      ],
      "type": "VEC3"
    },
    {
      "bufferView": 1,
      "byteOffset": 91080,
      "componentType": 5126,
      "count": 140,
      "max": [
        0.5606796741485596,
        0.9926923513412476
      ],
      "min": [
        0.3807721734046936,
        0.8749998807907104
      ],
      "type": "VEC2"
    },
    {
      "bufferView": 0,
      "byteOffset": 236544,
      "componentType": 5125,
      "count": 648,
      "type": "SCALAR"
    },
    {
      "bufferView": 2,
      "byteOffset": 276600,
      "componentType": 5126,
      "count": 2450,
      "max": [
        0.2679167091846466,
        0.11791668087244034,
        0.10000000894069672
      ],
      "min": [
        -0.2679167091846466,
        -0.11791668087244034,
        0.0008024691487662494
      ],
      "type": "VEC3"
    },
    {
      "bufferView": 2,
      "byteOffset": 306000,
      "componentType": 5126,
      "count": 2450,
      "max": [
        1.0,
        1.0,
        0.0
      ],
      "min": [
        -1.0,
        -1.0,
        -1.0
      ],
      "type": "VEC3"
    },
    {
      "bufferView": 1,
      "byteOffset": 92200,
      "componentType": 5126,
      "count": 2450,
      "max": [
        0.5606797337532043,
        0.9926924705505371
      ],
      "min": [
        0.3807721734046936,
        0.8749998807907104
      ],
      "type": "VEC2"
    },
    {
      "bufferView": 0,
      "byteOffset": 239136,
      "componentType": 5125,
      "count": 13824,
      "type": "SCALAR"
    },
    {
      "bufferView": 2,
      "byteOffset": 335400,
      "componentType": 5126,
      "count": 1817,
      "max": [
        0.30000004172325134,
        0.0,
        0.6900001168251038
      ],
      "min": [
        -0.30000004172325134,
        -0.30000004172325134,
        0.09999999403953552
      ],
      "type": "VEC3"
    },
    {
      "bufferView": 2,
      "byteOffset": 357204,
      "componentType": 5126,
      "count": 1817,
      "max": [
        1.0,
        1.0,
        1.0
      ],
      "min": [
        -1.0,
        -1.0,
        -1.0
      ],
      "type": "VEC3"
    },
    {
      "bufferView": 1,
      "byteOffset": 111800,
      "componentType": 5126,
      "count": 1817,
      "max": [
        0.5898877382278442,
        1.0000001192092896
      ],
      "min": [
        0.0,
        0.0
      ],
      "type": "VEC2"
    },
    {
      "bufferView": 0,
      "byteOffset": 294432,
      "componentType": 5125,
      "count": 9024,
      "type": "SCALAR"
    },
    {
      "bufferView": 2,
      "byteOffset": 379008,
      "componentType": 5126,
      "count": 133,
      "max": [
        0.012083802372217178,
        0.012083781883120537,
        0.0049979244358837605
      ],
      "min": [
        -0.012083834037184715,
        -0.012083853594958782,
        -0.004997926764190197
      ],
      "type": "VEC3"
    },
    {
      "bufferView": 2,
      "byteOffset": 380604,
      "componentType": 5126,
      "count": 133,
      "max": [
        1.0,
        1.0,
        0.0
      ],
      "min": [
        -1.0,
        -1.0,
        -1.0
      ],
      "type": "VEC3"
    },
    {
      "bufferView": 1,
      "byteOffset": 126336,
      "componentType": 5126,
      "count": 133,
      "max": [
        1.0000001192092896,
        1.0000001192092896
      ],
      "min": [
        0.0,
        0.5
      ],
      "type": "VEC2"
    },
    {
      "bufferView": 0,
      "byteOffset": 330528,
      "componentType": 5125,
      "count": 576,
      "type": "SCALAR"
    },
    {
      "bufferView": 2,
      "byteOffset": 382200,
      "componentType": 5126,
      "count": 21,
      "max": [
        0.00724345026537776,
        0.007243427447974682,
        -0.0004564747796393931
      ],
      "min": [
        -0.007243480999022722,
        -0.007243504747748375,
        -0.0004564752453006804
      ],
      "type": "VEC3"
    },
    {
      "bufferView": 2,
      "byteOffset": 382452,
      "componentType": 5126,
      "count": 21,
      "max": [
        0.0,
        0.0,
        -1.0
      ],
      "min": [
        0.0,
        0.0,
        -1.0
      ],
      "type": "VEC3"
    },
    {
      "bufferView": 1,
      "byteOffset": 127400,
      "componentType": 5126,
      "count": 21,
      "max": [
        0.9900001287460327,
        0.49000006914138794
      ],
      "min": [
        0.5100000500679016,
        0.010000006295740604
      ],
      "type": "VEC2"
    },
    {
      "bufferView": 0,
      "byteOffset": 332832,
      "componentType": 5125,
      "count": 48,
      "type": "SCALAR"
    },
    {
      "bufferView": 2,
      "byteOffset": 382704,
      "componentType": 5126,
      "count": 1882,
      "max": [
        0.02000000886619091,
        0.0,
        0.12000002712011337
      ],
      "min": [
        -0.02000000700354576,
        -0.15000005066394806,
        0.0
      ],
      "type": "VEC3"
    },
    {
      "bufferView": 2,
      "byteOffset": 405288,
      "componentType": 5126,
      "count": 1882,
      "max": [
        1.0,
        1.0,
        1.0
      ],
      "min": [
        -1.0,
        -1.0,
        -1.0
      ],
      "type": "VEC3"
    },
    {
      "bufferView": 1,
      "byteOffset": 127568,
      "componentType": 5126,
      "count": 1882,
      "max": [
        0.8750001192092896,
        1.0000001192092896
      ],
      "min": [
        0.375,
        0.0
      ],
      "type": "VEC2"
    },
    {
      "bufferView": 0,
      "byteOffset": 333024,
      "componentType": 5125,
      "count": 9024,
      "type": "SCALAR"
    },
    {
      "bufferView": 2,
      "byteOffset": 427872,
      "componentType": 5126,
      "count": 1225,
      "max": [
        0.015000003390014172,
        0.0,
        0.030000006780028343
      ],
      "min": [
        -0.015000003390014172,
        -0.09900002181529999,
        0.0
      ],
      "type": "VEC3"
    },
    {
      "bufferView": 2,
      "byteOffset": 442572,
      "componentType": 5126,
      "count": 1225,
      "max": [
        1.0,
        0.9999487400054932,
        1.0
      ],
      "min": [
        -1.0,
        -1.0,
        -1.0
      ],
      "type": "VEC3"
    },
    {
      "bufferView": 1,
      "byteOffset": 142624,
      "componentType": 5126,
      "count": 1225,
      "max": [
        0.8750001192092896,
        1.0000001192092896
      ],
      "min": [
        0.0,
        0.0
      ],
      "type": "VEC2"
    },
    {
      "bufferView": 0,
      "byteOffset": 369120,
      "componentType": 5125,
      "count": 6048,
      "type": "SCALAR"
    }
  ],
  "asset": {
    "extras": {
      "author": "blendzznike (https://sketchfab.com/blendzznike)",
      "license": "CC-BY-4.0 (http://creativecommons.org/licenses/by/4.0/)",
      "source": "https://sketchfab.com/3d-models/sink-with-faucet-e7c2bddaebe94dd0a28fd89981de5195",
      "title": "Sink with Faucet"
    },
    "generator": "Sketchfab-12.66.0",
    "version": "2.0"
  },
  "bufferViews": [
    {
      "buffer": 0,
      "byteLength": 393312,
      "name": "floatBufferViews",
      "target": 34963
    },
    {
      "buffer": 0,
      "byteLength": 152424,
      "byteOffset": 393312,
      "byteStride": 8,
      "name": "floatBufferViews",
      "target": 34962
    },
    {
      "buffer": 0,
      "byteLength": 457272,
      "byteOffset": 545736,
      "byteStride": 12,
      "name": "floatBufferViews",
      "target": 34962
    }
  ],
  "buffers": [
    {
      "byteLength": 1003008,
      "uri": "scene.bin"
    }
  ],
  "materials": [
    {
      "doubleSided": true,
      "name": "M_Ceramics",
      "pbrMetallicRoughness": {
        "baseColorFactor": [
          0.8,
          0.8,
          0.8,
          1.0
        ],
        "metallicFactor": 0.0,
        "roughnessFactor": 0.76
      }
    },
    {
      "doubleSided": true,
      "name": "M_BlackHole",
      "pbrMetallicRoughness": {
        "baseColorFactor": [
          0.0,
          0.0,
          0.0,
          1.0
        ],
        "metallicFactor": 0.0
      }
    },
    {
      "doubleSided": true,
      "name": "M_Chrome",
      "pbrMetallicRoughness": {
        "roughnessFactor": 0.0201472719
      }
    },
    {
      "doubleSided": true,
      "name": "M_White_wood",
      "pbrMetallicRoughness": {
        "baseColorFactor": [
          0.8,
          0.8,
          0.8,
          1.0
        ],
        "metallicFactor": 0.0,
        "roughnessFactor": 0.8211145618
      }
    }
  ],
  "meshes": [
    {
      "name": "Sink_Main_M_Ceramics_0",
      "primitives": [
        {
          "attributes": {
            "NORMAL": 1,
            "POSITION": 0,
            "TEXCOORD_0": 2
          },
          "indices": 3,
          "material": 0,
          "mode": 4
        }
      ]
    },
    {
      "name": "Sink_Main_M_BlackHole_0",
      "primitives": [
        {
          "attributes": {
            "NORMAL": 5,
            "POSITION": 4,
            "TEXCOORD_0": 6
          },
          "indices": 7,
          "material": 1,
          "mode": 4
        }
      ]
    },
    {
      "name": "Sink_Cylinder_big_M_Chrome_0",
      "primitives": [
        {
          "attributes": {
            "NORMAL": 9,
            "POSITION": 8,
            "TEXCOORD_0": 10
          },
          "indices": 11,
          "material": 2,
          "mode": 4
        }
      ]
    },
    {
      "name": "Sink_Cylinder_small_M_Chrome_0",
      "primitives": [
        {
          "attributes": {
            "NORMAL": 13,
            "POSITION": 12,
            "TEXCOORD_0": 14
          },
          "indices": 15,
          "material": 2,
          "mode": 4
        }
      ]
    },
    {
      "name": "Furniture_Door_Hands_M_Chrome_0",
      "primitives": [
        {
          "attributes": {
            "NORMAL": 17,
            "POSITION": 16,
            "TEXCOORD_0": 18
          },
          "indices": 19,
          "material": 2,
          "mode": 4
        }
      ]
    },
    {
      "name": "Furniture_Door_Wood_M_White_wood_0",
      "primitives": [
        {
          "attributes": {
            "NORMAL": 21,
            "POSITION": 20,
            "TEXCOORD_0": 22
          },
          "indices": 23,
          "material": 3,
          "mode": 4
        }
      ]
    },
    {
      "name": "Furniture_Legs_M_Chrome_0",
      "primitives": [
        {
          "attributes": {
            "NORMAL": 25,
            "POSITION": 24,
            "TEXCOORD_0": 26
          },
          "indices": 27,
          "material": 2,
          "mode": 4
        }
      ]
    },
    {
      "name": "Furniture_Wood_M_White_wood_0",
      "primitives": [
        {
          "attributes": {
            "NORMAL": 29,
            "POSITION": 28,
            "TEXCOORD_0": 30
          },
          "indices": 31,
          "material": 3,
          "mode": 4
        }
      ]
    },
    {
      "name": "Cylinder_out1_M_Chrome_0",
      "primitives": [
        {
          "attributes": {
            "NORMAL": 33,
            "POSITION": 32,
            "TEXCOORD_0": 34
          },
          "indices": 35,
          "material": 2,
          "mode": 4
        }
      ]
    },
    {
      "name": "Cylinder_out_black1_M_BlackHole_0",
      "primitives": [
        {
          "attributes": {
            "NORMAL": 37,
            "POSITION": 36,
            "TEXCOORD_0": 38
          },
          "indices": 39,
          "material": 1,
          "mode": 4
        }
      ]
    },
    {
      "name": "Faucet_1_M_Chrome_0",
      "primitives": [
        {
          "attributes": {
            "NORMAL": 41,
            "POSITION": 40,
            "TEXCOORD_0": 42
          },
          "indices": 43,
          "material": 2,
          "mode": 4
        }
      ]
    },
    {
      "name": "Faucet_1_up_M_Chrome_0",
      "primitives": [
        {
          "attributes": {
            "NORMAL": 45,
            "POSITION": 44,
            "TEXCOORD_0": 46
          },
          "indices": 47,
          "material": 2,
          "mode": 4
        }
      ]
    }
  ],
  "nodes": [
    {
      "children": [
        1
      ],
      "matrix": [
        1.0,
        0.0,
        0.0,
        0.0,
        0.0,
        2.220446049250313e-16,
        -1.0,
        0.0,
        0.0,
        1.0,
        2.220446049250313e-16,
        0.0,
        0.0,
        0.0,
        0.0,
        1.0
      ],
      "name": "Sketchfab_model"
    },
    {
      "children": [
        2
      ],
      "matrix": [
        0.009999999776482582,
        0.0,
        0.0,
        0.0,
        0.0,
        0.0,
        0.009999999776482582,
        0.0,
        0.0,
        -0.009999999776482582,
        0.0,
        0.0,
        0.0,
        0.0,
        0.0,
        1.0
      ],
      "name": "13518038faf643c6908478c8bc30014a.fbx"
    },
    {
      "children": [
        3,
        6,
        8,
        10,
        12,
        14,
        16,
        18,
        20,
        22,
        24
      ],
      "name": "RootNode"
    },
    {
      "children": [
        4,
        5
      ],
      "matrix": [
        100.0,
        0.0,
        0.0,
        0.0,
        0.0,
        -4.371139006309477e-06,
        -99.9999999999999,
        0.0,
        0.0,
        99.9999999999999,
        -4.371139006309477e-06,
        0.0,
        0.0,
        0.0,
        0.0,
        1.0
      ],
      "name": "Sink_Main"
    },
    {
      "mesh": 0,
      "name": "Sink_Main_M_Ceramics_0"
    },
    {
      "mesh": 1,
      "name": "Sink_Main_M_BlackHole_0"
    },
    {
      "children": [
        7
      ],
      "matrix": [
        100.0,
        0.0,
        0.0,
        0.0,
        0.0,
        -4.371139006309477e-06,
        -99.9999999999999,
        0.0,
        0.0,
        99.9999999999999,
        -4.371139006309477e-06,
        0.0,
        0.0,
        0.0,
        19.000001907348633,
        1.0
      ],
      "name": "Sink_Cylinder_big"
    },
    {
      "mesh": 2,
      "name": "Sink_Cylinder_big_M_Chrome_0"
    },
    {
      "children": [
        9
      ],
      "matrix": [
        100.0,
        0.0,
        0.0,
        0.0,
        0.0,
        -4.371139006309477e-06,
        -99.9999999999999,
        0.0,
        0.0,
        99.9999999999999,
        -4.371139006309477e-06,
        0.0,
        0.0,
        67.80000305175781,
        19.000001907348633,
        1.0
      ],
      "name": "Sink_Cylinder_small"
    },
    {
      "mesh": 3,
      "name": "Sink_Cylinder_small_M_Chrome_0"
    },
    {
      "children": [
        11
      ],
      "matrix": [
        100.0,
        0.0,
        0.0,
        0.0,
        0.0,
        -4.371139006309477e-06,
        -99.9999999999999,
        0.0,
        0.0,
        99.9999999999999,
        -4.371139006309477e-06,
        0.0,
        0.0,
        0.0,
        29.999998092651367,
        1.0
      ],
      "name": "Furniture_Door_Hands"
    },
    {
      "mesh": 4,
      "name": "Furniture_Door_Hands_M_Chrome_0"
    },
    {
      "children": [
        13
      ],
      "matrix": [
        100.0,
        0.0,
        0.0,
        0.0,
        0.0,
        -4.371139006309477e-06,
        -99.9999999999999,
        0.0,
        0.0,
        99.9999999999999,
        -4.371139006309477e-06,
        0.0,
        0.0,
        0.0,
        0.0,
        1.0
      ],
      "name": "Furniture_Door_Wood"
    },
    {
      "mesh": 5,
      "name": "Furniture_Door_Wood_M_White_wood_0"
    },
    {
      "children": [
        15
      ],
      "matrix": [
        100.0,
        0.0,
        0.0,
        0.0,
        0.0,
        -4.371139006309477e-06,
        -99.9999999999999,
        0.0,
        0.0,
        99.9999999999999,
        -4.371139006309477e-06,
        0.0,
        0.0,
        0.0,
        14.999999046325684,
        1.0
      ],
      "name": "Furniture_Legs"
    },
    {
      "mesh": 6,
      "name": "Furniture_Legs_M_Chrome_0"
    },
    {
      "children": [
        17
      ],
      "matrix": [
        100.0,
        0.0,
        0.0,
        0.0,
        0.0,
        -4.371139006309477e-06,
        -99.9999999999999,
        0.0,
        0.0,
        99.9999999999999,
        -4.371139006309477e-06,
        0.0,
        0.0,
        0.0,
        0.0,
        1.0
      ],
      "name": "Furniture_Wood"
    },
    {
      "mesh": 7,
      "name": "Furniture_Wood_M_White_wood_0"
    },
    {
      "children": [
        19
      ],
      "matrix": [
        100.0,
        6.323702476994802e-15,
        -9.195163027904849e-16,
        0.0,
        9.195156030475314e-16,
        -28.47941490372319,
        -95.85886187965482,
        0.0,
        -6.323702086081836e-15,
        95.85886187965482,
        -28.47941490372319,
        0.0,
        -9.02160392560452e-16,
        88.19265747070313,
        19.1309757232666,
        1.0
      ],
      "name": "Cylinder_out1"
    },
    {
      "mesh": 8,
      "name": "Cylinder_out1_M_Chrome_0"
    },
    {
      "children": [
        21
      ],
      "matrix": [
        100.0,
        6.323702476994802e-15,
        -9.195163027904849e-16,
        0.0,
        9.195156030475314e-16,
        -28.47941490372319,
        -95.85886187965482,
        0.0,
        -6.323702086081836e-15,
        95.85886187965482,
        -28.47941490372319,
        0.0,
        -9.02160392560452e-16,
        88.19265747070313,
        19.1309757232666,
        1.0
      ],
      "name": "Cylinder_out_black1"
    },
    {
      "mesh": 9,
      "name": "Cylinder_out_black1_M_BlackHole_0"
    },
    {
      "children": [
        23
      ],
      "matrix": [
        100.0,
        0.0,
        0.0,
        0.0,
        -0.0,
        -4.371139006309477e-06,
        -99.9999999999999,
        0.0,
        0.0,
        99.9999999999999,
        -4.371139006309477e-06,
        0.0,
        -9.02160392560452e-16,
        80.19265747070313,
        6.130975723266602,
        1.0
      ],
      "name": "Faucet_1"
    },
    {
      "mesh": 10,
      "name": "Faucet_1_M_Chrome_0"
    },
    {
      "children": [
        25
      ],
      "matrix": [
        100.0,
        0.0,
        0.0,
        0.0,
        -0.0,
        -4.371139006309477e-06,
        -99.9999999999999,
        0.0,
        0.0,
        99.9999999999999,
        -4.371139006309477e-06,
        0.0,
        -9.02160392560452e-16,
        91.19265747070313,
        6.130975723266602,
        1.0
      ],
      "name": "Faucet_1_up"
    },
    {
      "mesh": 11,
      "name": "Faucet_1_up_M_Chrome_0"
    }
  ],
  "scene": 0,
  "scenes": [
    {
      "name": "Sketchfab_Scene",
      "nodes": [
        0
      ]
    }
  ]
}
